# xmcd
#
# Track frame offsets: 
#        150
#        16725
#        37112
#        49762
#        60100
#        77580
#        88297
#        104305
#        112792
#        130635
#        144400
#        155240
#        167415
#        186662
#
# Disc length: 2723 seconds
#
# Revision: 1
# Processed by: cddbd v1.5.2PL0 Copyright (c) Steve Scherf et al.
# Submitted via: ExactAudioCopy v1.0b3
#
DISCID=ae0aa10e
DTITLE=The Chicago String Band - The Chicago String Band
DYEAR=1994
DGENRE=Blues
TTITLE0=The Sun Is Sinking Low
TTITLE1=Trouble On Your Hands
TTITLE2=Weeping and Moaning
TTITLE3=You Know I Do
TTITLE4=Hoodoo Blues
TTITLE5=You Got Good Business
TTITLE6=Take It Easy Baby
TTITLE7=I Got To Find That Woman
TTITLE8=Clean Cut Mama
TTITLE9=Railroad Blues
TTITLE10=Don't Sic Your Dog On Me
TTITLE11=John Henry
TTITLE12=Memphis,Tenn.,1939 Blues
TTITLE13=Bye Bye Pete
EXTD=YEAR: 1966
EXTT0=
EXTT1=
EXTT2=
EXTT3=
EXTT4=
EXTT5=
EXTT6=
EXTT7=
EXTT8=
EXTT9=
EXTT10=
EXTT11=
EXTT12=
EXTT13=
PLAYORDER=
